<svg xmlns="http://www.w3.org/2000/svg" viewBox="0 0 520 520" fill="none">
  <style>
    .main { stroke:#70757d; stroke-width:3.25; stroke-linecap:round; stroke-linejoin:round; vector-effect:non-scaling-stroke; }
    .mid  { stroke:#7d828a; stroke-width:2.15; stroke-linecap:round; stroke-linejoin:round; vector-effect:non-scaling-stroke; }
    .fine { stroke:#8b9098; stroke-width:1.35; stroke-linecap:round; stroke-linejoin:round; vector-effect:non-scaling-stroke; }
  </style>

<circle class="main" cx="260.0" cy="260.0" r="248"/>
<circle class="fine" cx="260.0" cy="260.0" r="238"/>
<circle class="mid" cx="260.0" cy="260.0" r="226"/>
<circle class="fine" cx="260.0" cy="260.0" r="166"/>
<circle class="main" cx="260.0" cy="260.0" r="154"/>
<circle class="main" cx="508.00" cy="260.00" r="8.2"/>
<line class="fine" x1="426.00" y1="260.00" x2="498.00" y2="260.00"/>
<circle class="main" cx="260.00" cy="508.00" r="8.2"/>
<line class="fine" x1="260.00" y1="426.00" x2="260.00" y2="498.00"/>
<circle class="main" cx="12.00" cy="260.00" r="8.2"/>
<line class="fine" x1="94.00" y1="260.00" x2="22.00" y2="260.00"/>
<circle class="main" cx="260.00" cy="12.00" r="8.2"/>
<line class="fine" x1="260.00" y1="94.00" x2="260.00" y2="22.00"/>
<path class="main" d="M 254.60 90.00 L 250.59 53.28 L 247.30 39.00 L 272.70 39.00 L 269.42 53.28 L 265.40 90.00 Z"/>
<line class="fine" x1="269.90" y1="33.22" x2="270.25" y2="25.22"/>
<path class="main" d="M 284.20 91.64 L 286.62 54.79 L 285.87 40.15 L 310.88 44.56 L 305.17 58.06 L 294.84 93.52 Z"/>
<path class="main" d="M 313.07 98.41 L 321.86 62.53 L 323.65 47.98 L 347.52 56.67 L 339.55 68.97 L 323.22 102.10 Z"/>
<line class="fine" x1="346.87" y1="50.28" x2="349.93" y2="42.89"/>
<path class="main" d="M 340.32 110.08 L 355.21 76.27 L 359.50 62.26 L 381.50 74.96 L 371.51 85.68 L 349.68 115.48 Z"/>
<path class="main" d="M 365.14 126.30 L 385.66 95.59 L 392.33 82.54 L 411.78 98.87 L 400.09 107.70 L 373.41 133.24 Z"/>
<line class="fine" x1="413.36" y1="92.64" x2="418.76" y2="86.74"/>
<path class="main" d="M 386.76 146.59 L 412.30 119.91 L 421.13 108.22 L 437.46 127.67 L 424.41 134.34 L 393.70 154.86 Z"/>
<path class="main" d="M 404.52 170.32 L 434.32 148.49 L 445.04 138.50 L 457.74 160.50 L 443.73 164.79 L 409.92 179.68 Z"/>
<line class="fine" x1="461.35" y1="155.18" x2="468.45" y2="151.49"/>
<path class="main" d="M 417.90 196.78 L 451.03 180.45 L 463.33 172.48 L 472.02 196.35 L 457.47 198.14 L 421.59 206.93 Z"/>
<path class="main" d="M 426.48 225.16 L 461.94 214.83 L 475.44 209.12 L 479.85 234.13 L 465.21 233.38 L 428.36 235.80 Z"/>
<line class="fine" x1="485.06" y1="230.37" x2="492.99" y2="229.33"/>
<path class="main" d="M 430.00 254.60 L 466.72 250.59 L 481.00 247.30 L 481.00 272.70 L 466.72 269.42 L 430.00 265.40 Z"/>
<path class="main" d="M 428.36 284.20 L 465.21 286.62 L 479.85 285.87 L 475.44 310.88 L 461.94 305.17 L 426.48 294.84 Z"/>
<line class="fine" x1="481.62" y1="309.13" x2="489.43" y2="310.86"/>
<path class="main" d="M 421.59 313.07 L 457.47 321.86 L 472.02 323.65 L 463.33 347.52 L 451.03 339.55 L 417.90 323.22 Z"/>
<path class="main" d="M 409.92 340.32 L 443.73 355.21 L 457.74 359.50 L 445.04 381.50 L 434.32 371.51 L 404.52 349.68 Z"/>
<line class="fine" x1="451.45" y1="381.97" x2="458.20" y2="386.27"/>
<path class="main" d="M 393.70 365.14 L 424.41 385.66 L 437.46 392.33 L 421.13 411.78 L 412.30 400.09 L 386.76 373.41 Z"/>
<path class="main" d="M 373.41 386.76 L 400.09 412.30 L 411.78 421.13 L 392.33 437.46 L 385.66 424.41 L 365.14 393.70 Z"/>
<line class="fine" x1="398.19" y1="440.09" x2="403.06" y2="446.44"/>
<path class="main" d="M 349.68 404.52 L 371.51 434.32 L 381.50 445.04 L 359.50 457.74 L 355.21 443.73 L 340.32 409.92 Z"/>
<path class="main" d="M 323.22 417.90 L 339.55 451.03 L 347.52 463.33 L 323.65 472.02 L 321.86 457.47 L 313.07 421.59 Z"/>
<line class="fine" x1="328.26" y1="476.49" x2="330.67" y2="484.12"/>
<path class="main" d="M 294.84 426.48 L 305.17 461.94 L 310.88 475.44 L 285.87 479.85 L 286.62 465.21 L 284.20 428.36 Z"/>
<path class="main" d="M 265.40 430.00 L 269.42 466.72 L 272.70 481.00 L 247.30 481.00 L 250.59 466.72 L 254.60 430.00 Z"/>
<line class="fine" x1="250.10" y1="486.78" x2="249.75" y2="494.78"/>
<path class="main" d="M 235.80 428.36 L 233.38 465.21 L 234.13 479.85 L 209.12 475.44 L 214.83 461.94 L 225.16 426.48 Z"/>
<path class="main" d="M 206.93 421.59 L 198.14 457.47 L 196.35 472.02 L 172.48 463.33 L 180.45 451.03 L 196.78 417.90 Z"/>
<line class="fine" x1="173.13" y1="469.72" x2="170.07" y2="477.11"/>
<path class="main" d="M 179.68 409.92 L 164.79 443.73 L 160.50 457.74 L 138.50 445.04 L 148.49 434.32 L 170.32 404.52 Z"/>
<path class="main" d="M 154.86 393.70 L 134.34 424.41 L 127.67 437.46 L 108.22 421.13 L 119.91 412.30 L 146.59 386.76 Z"/>
<line class="fine" x1="106.64" y1="427.36" x2="101.24" y2="433.26"/>
<path class="main" d="M 133.24 373.41 L 107.70 400.09 L 98.87 411.78 L 82.54 392.33 L 95.59 385.66 L 126.30 365.14 Z"/>
<path class="main" d="M 115.48 349.68 L 85.68 371.51 L 74.96 381.50 L 62.26 359.50 L 76.27 355.21 L 110.08 340.32 Z"/>
<line class="fine" x1="58.65" y1="364.82" x2="51.55" y2="368.51"/>
<path class="main" d="M 102.10 323.22 L 68.97 339.55 L 56.67 347.52 L 47.98 323.65 L 62.53 321.86 L 98.41 313.07 Z"/>
<path class="main" d="M 93.52 294.84 L 58.06 305.17 L 44.56 310.88 L 40.15 285.87 L 54.79 286.62 L 91.64 284.20 Z"/>
<line class="fine" x1="34.94" y1="289.63" x2="27.01" y2="290.67"/>
<path class="main" d="M 90.00 265.40 L 53.28 269.42 L 39.00 272.70 L 39.00 247.30 L 53.28 250.59 L 90.00 254.60 Z"/>
<path class="main" d="M 91.64 235.80 L 54.79 233.38 L 40.15 234.13 L 44.56 209.12 L 58.06 214.83 L 93.52 225.16 Z"/>
<line class="fine" x1="38.38" y1="210.87" x2="30.57" y2="209.14"/>
<path class="main" d="M 98.41 206.93 L 62.53 198.14 L 47.98 196.35 L 56.67 172.48 L 68.97 180.45 L 102.10 196.78 Z"/>
<path class="main" d="M 110.08 179.68 L 76.27 164.79 L 62.26 160.50 L 74.96 138.50 L 85.68 148.49 L 115.48 170.32 Z"/>
<line class="fine" x1="68.55" y1="138.03" x2="61.80" y2="133.73"/>
<path class="main" d="M 126.30 154.86 L 95.59 134.34 L 82.54 127.67 L 98.87 108.22 L 107.70 119.91 L 133.24 146.59 Z"/>
<path class="main" d="M 146.59 133.24 L 119.91 107.70 L 108.22 98.87 L 127.67 82.54 L 134.34 95.59 L 154.86 126.30 Z"/>
<line class="fine" x1="121.81" y1="79.91" x2="116.94" y2="73.56"/>
<path class="main" d="M 170.32 115.48 L 148.49 85.68 L 138.50 74.96 L 160.50 62.26 L 164.79 76.27 L 179.68 110.08 Z"/>
<path class="main" d="M 196.78 102.10 L 180.45 68.97 L 172.48 56.67 L 196.35 47.98 L 198.14 62.53 L 206.93 98.41 Z"/>
<line class="fine" x1="191.74" y1="43.51" x2="189.33" y2="35.88"/>
<path class="main" d="M 225.16 93.52 L 214.83 58.06 L 209.12 44.56 L 234.13 40.15 L 233.38 54.79 L 235.80 91.64 Z"/>
<rect class="fine" x="313.62" y="25.58" width="17" height="5.2" rx="2.6" transform="rotate(15.00 322.12 28.18)"/>
<line class="fine" x1="426.01" y1="90.29" x2="433.41" y2="90.29" transform="rotate(45.00 429.71 90.29)"/>
<line class="fine" x1="488.12" y1="197.88" x2="495.52" y2="197.88" transform="rotate(75.00 491.82 197.88)"/>
<rect class="fine" x="483.32" y="319.52" width="17" height="5.2" rx="2.6" transform="rotate(105.00 491.82 322.12)"/>
<line class="fine" x1="426.01" y1="429.71" x2="433.41" y2="429.71" transform="rotate(135.00 429.71 429.71)"/>
<line class="fine" x1="318.42" y1="491.82" x2="325.82" y2="491.82" transform="rotate(165.00 322.12 491.82)"/>
<rect class="fine" x="189.38" y="489.22" width="17" height="5.2" rx="2.6" transform="rotate(195.00 197.88 491.82)"/>
<line class="fine" x1="86.59" y1="429.71" x2="93.99" y2="429.71" transform="rotate(225.00 90.29 429.71)"/>
<line class="fine" x1="24.48" y1="322.12" x2="31.88" y2="322.12" transform="rotate(255.00 28.18 322.12)"/>
<rect class="fine" x="19.68" y="195.28" width="17" height="5.2" rx="2.6" transform="rotate(285.00 28.18 197.88)"/>
<line class="fine" x1="86.59" y1="90.29" x2="93.99" y2="90.29" transform="rotate(315.00 90.29 90.29)"/>
<line class="fine" x1="194.18" y1="28.18" x2="201.58" y2="28.18" transform="rotate(345.00 197.88 28.18)"/>
<path class="fine" d="M 267.41 10.41 A 249.70 249.70 0 0 1 278.72 11.00"/>
<path class="fine" d="M 310.64 15.49 A 249.70 249.70 0 0 1 321.68 18.04"/>
<path class="fine" d="M 352.33 28.00 A 249.70 249.70 0 0 1 362.76 32.42"/>
<path class="fine" d="M 391.21 47.55 A 249.70 249.70 0 0 1 400.71 53.72"/>
<path class="fine" d="M 426.11 73.56 A 249.70 249.70 0 0 1 434.39 81.29"/>
<path class="fine" d="M 455.96 105.24 A 249.70 249.70 0 0 1 462.78 114.29"/>
<path class="fine" d="M 479.86 141.62 A 249.70 249.70 0 0 1 485.00 151.72"/>
<path class="fine" d="M 497.07 181.60 A 249.70 249.70 0 0 1 500.38 192.43"/>
<path class="fine" d="M 507.08 223.95 A 249.70 249.70 0 0 1 508.47 235.20"/>
<path class="fine" d="M 509.59 267.41 A 249.70 249.70 0 0 1 509.00 278.72"/>
<path class="fine" d="M 504.51 310.64 A 249.70 249.70 0 0 1 501.96 321.68"/>
<path class="fine" d="M 492.00 352.33 A 249.70 249.70 0 0 1 487.58 362.76"/>
<path class="fine" d="M 472.45 391.21 A 249.70 249.70 0 0 1 466.28 400.71"/>
<path class="fine" d="M 446.44 426.11 A 249.70 249.70 0 0 1 438.71 434.39"/>
<path class="fine" d="M 414.76 455.96 A 249.70 249.70 0 0 1 405.71 462.78"/>
<path class="fine" d="M 378.38 479.86 A 249.70 249.70 0 0 1 368.28 485.00"/>
<path class="fine" d="M 338.40 497.07 A 249.70 249.70 0 0 1 327.57 500.38"/>
<path class="fine" d="M 296.05 507.08 A 249.70 249.70 0 0 1 284.80 508.47"/>
<path class="fine" d="M 252.59 509.59 A 249.70 249.70 0 0 1 241.28 509.00"/>
<path class="fine" d="M 209.36 504.51 A 249.70 249.70 0 0 1 198.32 501.96"/>
<path class="fine" d="M 167.67 492.00 A 249.70 249.70 0 0 1 157.24 487.58"/>
<path class="fine" d="M 128.79 472.45 A 249.70 249.70 0 0 1 119.29 466.28"/>
<path class="fine" d="M 93.89 446.44 A 249.70 249.70 0 0 1 85.61 438.71"/>
<path class="fine" d="M 64.04 414.76 A 249.70 249.70 0 0 1 57.22 405.71"/>
<path class="fine" d="M 40.14 378.38 A 249.70 249.70 0 0 1 35.00 368.28"/>
<path class="fine" d="M 22.93 338.40 A 249.70 249.70 0 0 1 19.62 327.57"/>
<path class="fine" d="M 12.92 296.05 A 249.70 249.70 0 0 1 11.53 284.80"/>
<path class="fine" d="M 10.41 252.59 A 249.70 249.70 0 0 1 11.00 241.28"/>
<path class="fine" d="M 15.49 209.36 A 249.70 249.70 0 0 1 18.04 198.32"/>
<path class="fine" d="M 28.00 167.67 A 249.70 249.70 0 0 1 32.42 157.24"/>
<path class="fine" d="M 47.55 128.79 A 249.70 249.70 0 0 1 53.72 119.29"/>
<path class="fine" d="M 73.56 93.89 A 249.70 249.70 0 0 1 81.29 85.61"/>
<path class="fine" d="M 105.24 64.04 A 249.70 249.70 0 0 1 114.29 57.22"/>
<path class="fine" d="M 141.62 40.14 A 249.70 249.70 0 0 1 151.72 35.00"/>
<path class="fine" d="M 181.60 22.93 A 249.70 249.70 0 0 1 192.43 19.62"/>
<path class="fine" d="M 223.95 12.92 A 249.70 249.70 0 0 1 235.20 11.53"/>
</svg>