<svg xmlns="http://www.w3.org/2000/svg" viewBox="0 0 520 520" fill="none">
  <style>
    .main { stroke:#70757d; stroke-width:3.2; stroke-linecap:round; stroke-linejoin:round; vector-effect:non-scaling-stroke; }
    .mid  { stroke:#7d828a; stroke-width:2.05; stroke-linecap:round; stroke-linejoin:round; vector-effect:non-scaling-stroke; }
    .fine { stroke:#8b9098; stroke-width:1.25; stroke-linecap:round; stroke-linejoin:round; vector-effect:non-scaling-stroke; }
  </style>

<circle class="main" cx="260.0" cy="260.0" r="150"/>
<circle class="fine" cx="260.0" cy="260.0" r="164"/>
<circle class="mid" cx="260.0" cy="260.0" r="238"/>
<circle class="fine" cx="260.0" cy="260.0" r="248"/>
<path class="main" d="M 254.90 88.00 L 255.31 75.02 L 247.80 29.00 L 272.20 29.00 L 264.69 75.02 L 265.10 88.00 Z"/>
<line class="fine" x1="280.39" y1="26.89" x2="281.09" y2="18.92"/>
<path class="main" d="M 284.84 89.73 L 287.50 77.02 L 288.10 30.39 L 312.13 34.63 L 296.74 78.65 L 294.89 91.50 Z"/>
<line class="fine" x1="320.56" y1="33.97" x2="322.63" y2="26.25"/>
<path class="main" d="M 314.04 96.63 L 318.86 84.57 L 327.54 38.76 L 350.47 47.10 L 327.68 87.78 L 323.62 100.12 Z"/>
<line class="fine" x1="358.89" y1="47.92" x2="362.27" y2="40.67"/>
<path class="main" d="M 341.58 108.49 L 348.43 97.46 L 364.93 53.85 L 386.07 66.05 L 356.55 102.15 L 350.42 113.59 Z"/>
<line class="fine" x1="394.22" y1="68.32" x2="398.81" y2="61.77"/>
<path class="main" d="M 366.65 124.96 L 375.31 115.28 L 399.14 75.20 L 417.83 90.89 L 382.50 121.31 L 374.47 131.52 Z"/>
<line class="fine" x1="425.46" y1="94.54" x2="431.12" y2="88.88"/>
<path class="main" d="M 388.48 145.53 L 398.69 137.50 L 429.11 102.17 L 444.80 120.86 L 404.72 144.69 L 395.04 153.35 Z"/>
<line class="fine" x1="451.68" y1="125.78" x2="458.23" y2="121.19"/>
<path class="main" d="M 406.41 169.58 L 417.85 163.45 L 453.95 133.93 L 466.15 155.07 L 422.54 171.57 L 411.51 178.42 Z"/>
<line class="fine" x1="472.08" y1="161.11" x2="479.33" y2="157.73"/>
<path class="main" d="M 419.88 196.38 L 432.22 192.32 L 472.90 169.53 L 481.24 192.46 L 435.43 201.14 L 423.37 205.96 Z"/>
<line class="fine" x1="486.03" y1="199.44" x2="493.75" y2="197.37"/>
<path class="main" d="M 428.50 225.11 L 441.35 223.26 L 485.37 207.87 L 489.61 231.90 L 442.98 232.50 L 430.27 235.16 Z"/>
<line class="fine" x1="493.11" y1="239.61" x2="501.08" y2="238.91"/>
<path class="main" d="M 432.00 254.90 L 444.98 255.31 L 491.00 247.80 L 491.00 272.20 L 444.98 264.69 L 432.00 265.10 Z"/>
<line class="fine" x1="493.11" y1="280.39" x2="501.08" y2="281.09"/>
<path class="main" d="M 430.27 284.84 L 442.98 287.50 L 489.61 288.10 L 485.37 312.13 L 441.35 296.74 L 428.50 294.89 Z"/>
<line class="fine" x1="486.03" y1="320.56" x2="493.75" y2="322.63"/>
<path class="main" d="M 423.37 314.04 L 435.43 318.86 L 481.24 327.54 L 472.90 350.47 L 432.22 327.68 L 419.88 323.62 Z"/>
<line class="fine" x1="472.08" y1="358.89" x2="479.33" y2="362.27"/>
<path class="main" d="M 411.51 341.58 L 422.54 348.43 L 466.15 364.93 L 453.95 386.07 L 417.85 356.55 L 406.41 350.42 Z"/>
<line class="fine" x1="451.68" y1="394.22" x2="458.23" y2="398.81"/>
<path class="main" d="M 395.04 366.65 L 404.72 375.31 L 444.80 399.14 L 429.11 417.83 L 398.69 382.50 L 388.48 374.47 Z"/>
<line class="fine" x1="425.46" y1="425.46" x2="431.12" y2="431.12"/>
<path class="main" d="M 374.47 388.48 L 382.50 398.69 L 417.83 429.11 L 399.14 444.80 L 375.31 404.72 L 366.65 395.04 Z"/>
<line class="fine" x1="394.22" y1="451.68" x2="398.81" y2="458.23"/>
<path class="main" d="M 350.42 406.41 L 356.55 417.85 L 386.07 453.95 L 364.93 466.15 L 348.43 422.54 L 341.58 411.51 Z"/>
<line class="fine" x1="358.89" y1="472.08" x2="362.27" y2="479.33"/>
<path class="main" d="M 323.62 419.88 L 327.68 432.22 L 350.47 472.90 L 327.54 481.24 L 318.86 435.43 L 314.04 423.37 Z"/>
<line class="fine" x1="320.56" y1="486.03" x2="322.63" y2="493.75"/>
<path class="main" d="M 294.89 428.50 L 296.74 441.35 L 312.13 485.37 L 288.10 489.61 L 287.50 442.98 L 284.84 430.27 Z"/>
<line class="fine" x1="280.39" y1="493.11" x2="281.09" y2="501.08"/>
<path class="main" d="M 265.10 432.00 L 264.69 444.98 L 272.20 491.00 L 247.80 491.00 L 255.31 444.98 L 254.90 432.00 Z"/>
<line class="fine" x1="239.61" y1="493.11" x2="238.91" y2="501.08"/>
<path class="main" d="M 235.16 430.27 L 232.50 442.98 L 231.90 489.61 L 207.87 485.37 L 223.26 441.35 L 225.11 428.50 Z"/>
<line class="fine" x1="199.44" y1="486.03" x2="197.37" y2="493.75"/>
<path class="main" d="M 205.96 423.37 L 201.14 435.43 L 192.46 481.24 L 169.53 472.90 L 192.32 432.22 L 196.38 419.88 Z"/>
<line class="fine" x1="161.11" y1="472.08" x2="157.73" y2="479.33"/>
<path class="main" d="M 178.42 411.51 L 171.57 422.54 L 155.07 466.15 L 133.93 453.95 L 163.45 417.85 L 169.58 406.41 Z"/>
<line class="fine" x1="125.78" y1="451.68" x2="121.19" y2="458.23"/>
<path class="main" d="M 153.35 395.04 L 144.69 404.72 L 120.86 444.80 L 102.17 429.11 L 137.50 398.69 L 145.53 388.48 Z"/>
<line class="fine" x1="94.54" y1="425.46" x2="88.88" y2="431.12"/>
<path class="main" d="M 131.52 374.47 L 121.31 382.50 L 90.89 417.83 L 75.20 399.14 L 115.28 375.31 L 124.96 366.65 Z"/>
<line class="fine" x1="68.32" y1="394.22" x2="61.77" y2="398.81"/>
<path class="main" d="M 113.59 350.42 L 102.15 356.55 L 66.05 386.07 L 53.85 364.93 L 97.46 348.43 L 108.49 341.58 Z"/>
<line class="fine" x1="47.92" y1="358.89" x2="40.67" y2="362.27"/>
<path class="main" d="M 100.12 323.62 L 87.78 327.68 L 47.10 350.47 L 38.76 327.54 L 84.57 318.86 L 96.63 314.04 Z"/>
<line class="fine" x1="33.97" y1="320.56" x2="26.25" y2="322.63"/>
<path class="main" d="M 91.50 294.89 L 78.65 296.74 L 34.63 312.13 L 30.39 288.10 L 77.02 287.50 L 89.73 284.84 Z"/>
<line class="fine" x1="26.89" y1="280.39" x2="18.92" y2="281.09"/>
<path class="main" d="M 88.00 265.10 L 75.02 264.69 L 29.00 272.20 L 29.00 247.80 L 75.02 255.31 L 88.00 254.90 Z"/>
<line class="fine" x1="26.89" y1="239.61" x2="18.92" y2="238.91"/>
<path class="main" d="M 89.73 235.16 L 77.02 232.50 L 30.39 231.90 L 34.63 207.87 L 78.65 223.26 L 91.50 225.11 Z"/>
<line class="fine" x1="33.97" y1="199.44" x2="26.25" y2="197.37"/>
<path class="main" d="M 96.63 205.96 L 84.57 201.14 L 38.76 192.46 L 47.10 169.53 L 87.78 192.32 L 100.12 196.38 Z"/>
<line class="fine" x1="47.92" y1="161.11" x2="40.67" y2="157.73"/>
<path class="main" d="M 108.49 178.42 L 97.46 171.57 L 53.85 155.07 L 66.05 133.93 L 102.15 163.45 L 113.59 169.58 Z"/>
<line class="fine" x1="68.32" y1="125.78" x2="61.77" y2="121.19"/>
<path class="main" d="M 124.96 153.35 L 115.28 144.69 L 75.20 120.86 L 90.89 102.17 L 121.31 137.50 L 131.52 145.53 Z"/>
<line class="fine" x1="94.54" y1="94.54" x2="88.88" y2="88.88"/>
<path class="main" d="M 145.53 131.52 L 137.50 121.31 L 102.17 90.89 L 120.86 75.20 L 144.69 115.28 L 153.35 124.96 Z"/>
<line class="fine" x1="125.78" y1="68.32" x2="121.19" y2="61.77"/>
<path class="main" d="M 169.58 113.59 L 163.45 102.15 L 133.93 66.05 L 155.07 53.85 L 171.57 97.46 L 178.42 108.49 Z"/>
<line class="fine" x1="161.11" y1="47.92" x2="157.73" y2="40.67"/>
<path class="main" d="M 196.38 100.12 L 192.32 87.78 L 169.53 47.10 L 192.46 38.76 L 201.14 84.57 L 205.96 96.63 Z"/>
<line class="fine" x1="199.44" y1="33.97" x2="197.37" y2="26.25"/>
<path class="main" d="M 225.11 91.50 L 223.26 78.65 L 207.87 34.63 L 231.90 30.39 L 232.50 77.02 L 235.16 89.73 Z"/>
<line class="fine" x1="239.61" y1="26.89" x2="238.91" y2="18.92"/>
<rect class="fine" x="313.88" y="24.61" width="17" height="5.2" rx="2.6" transform="rotate(15.00 322.38 27.21)"/>
<line class="fine" x1="425.91" y1="89.59" x2="434.91" y2="89.59" transform="rotate(45.00 430.41 89.59)"/>
<line class="fine" x1="488.29" y1="197.62" x2="497.29" y2="197.62" transform="rotate(75.00 492.79 197.62)"/>
<rect class="fine" x="484.29" y="319.78" width="17" height="5.2" rx="2.6" transform="rotate(105.00 492.79 322.38)"/>
<line class="fine" x1="425.91" y1="430.41" x2="434.91" y2="430.41" transform="rotate(135.00 430.41 430.41)"/>
<line class="fine" x1="317.88" y1="492.79" x2="326.88" y2="492.79" transform="rotate(165.00 322.38 492.79)"/>
<rect class="fine" x="189.12" y="490.19" width="17" height="5.2" rx="2.6" transform="rotate(195.00 197.62 492.79)"/>
<line class="fine" x1="85.09" y1="430.41" x2="94.09" y2="430.41" transform="rotate(225.00 89.59 430.41)"/>
<line class="fine" x1="22.71" y1="322.38" x2="31.71" y2="322.38" transform="rotate(255.00 27.21 322.38)"/>
<rect class="fine" x="18.71" y="195.02" width="17" height="5.2" rx="2.6" transform="rotate(285.00 27.21 197.62)"/>
<line class="fine" x1="85.09" y1="89.59" x2="94.09" y2="89.59" transform="rotate(315.00 89.59 89.59)"/>
<line class="fine" x1="193.12" y1="27.21" x2="202.12" y2="27.21" transform="rotate(345.00 197.62 27.21)"/>
<circle class="main" cx="508.00" cy="260.00" r="7.8"/>
<line class="fine" x1="424.00" y1="260.00" x2="498.00" y2="260.00"/>
<circle class="main" cx="260.00" cy="508.00" r="7.8"/>
<line class="fine" x1="260.00" y1="424.00" x2="260.00" y2="498.00"/>
<circle class="main" cx="12.00" cy="260.00" r="7.8"/>
<line class="fine" x1="96.00" y1="260.00" x2="22.00" y2="260.00"/>
<circle class="main" cx="260.00" cy="12.00" r="7.8"/>
<line class="fine" x1="260.00" y1="96.00" x2="260.00" y2="22.00"/>
<path class="fine" d="M 264.35 10.74 A 249.30 249.30 0 0 1 276.52 11.25"/>
<path class="fine" d="M 307.57 15.28 A 249.30 249.30 0 0 1 319.47 17.90"/>
<path class="fine" d="M 349.34 27.26 A 249.30 249.30 0 0 1 360.60 31.90"/>
<path class="fine" d="M 388.40 46.31 A 249.30 249.30 0 0 1 398.68 52.84"/>
<path class="fine" d="M 423.56 71.85 A 249.30 249.30 0 0 1 432.55 80.07"/>
<path class="fine" d="M 453.74 103.11 A 249.30 249.30 0 0 1 461.18 112.76"/>
<path class="fine" d="M 478.04 139.14 A 249.30 249.30 0 0 1 483.69 149.93"/>
<path class="fine" d="M 495.72 178.84 A 249.30 249.30 0 0 1 499.40 190.45"/>
<path class="fine" d="M 506.23 221.00 A 249.30 249.30 0 0 1 507.84 233.08"/>
<path class="fine" d="M 509.26 264.35 A 249.30 249.30 0 0 1 508.75 276.52"/>
<path class="fine" d="M 504.72 307.57 A 249.30 249.30 0 0 1 502.10 319.47"/>
<path class="fine" d="M 492.74 349.34 A 249.30 249.30 0 0 1 488.10 360.60"/>
<path class="fine" d="M 473.69 388.40 A 249.30 249.30 0 0 1 467.16 398.68"/>
<path class="fine" d="M 448.15 423.56 A 249.30 249.30 0 0 1 439.93 432.55"/>
<path class="fine" d="M 416.89 453.74 A 249.30 249.30 0 0 1 407.24 461.18"/>
<path class="fine" d="M 380.86 478.04 A 249.30 249.30 0 0 1 370.07 483.69"/>
<path class="fine" d="M 341.16 495.72 A 249.30 249.30 0 0 1 329.55 499.40"/>
<path class="fine" d="M 299.00 506.23 A 249.30 249.30 0 0 1 286.92 507.84"/>
<path class="fine" d="M 255.65 509.26 A 249.30 249.30 0 0 1 243.48 508.75"/>
<path class="fine" d="M 212.43 504.72 A 249.30 249.30 0 0 1 200.53 502.10"/>
<path class="fine" d="M 170.66 492.74 A 249.30 249.30 0 0 1 159.40 488.10"/>
<path class="fine" d="M 131.60 473.69 A 249.30 249.30 0 0 1 121.32 467.16"/>
<path class="fine" d="M 96.44 448.15 A 249.30 249.30 0 0 1 87.45 439.93"/>
<path class="fine" d="M 66.26 416.89 A 249.30 249.30 0 0 1 58.82 407.24"/>
<path class="fine" d="M 41.96 380.86 A 249.30 249.30 0 0 1 36.31 370.07"/>
<path class="fine" d="M 24.28 341.16 A 249.30 249.30 0 0 1 20.60 329.55"/>
<path class="fine" d="M 13.77 299.00 A 249.30 249.30 0 0 1 12.16 286.92"/>
<path class="fine" d="M 10.74 255.65 A 249.30 249.30 0 0 1 11.25 243.48"/>
<path class="fine" d="M 15.28 212.43 A 249.30 249.30 0 0 1 17.90 200.53"/>
<path class="fine" d="M 27.26 170.66 A 249.30 249.30 0 0 1 31.90 159.40"/>
<path class="fine" d="M 46.31 131.60 A 249.30 249.30 0 0 1 52.84 121.32"/>
<path class="fine" d="M 71.85 96.44 A 249.30 249.30 0 0 1 80.07 87.45"/>
<path class="fine" d="M 103.11 66.26 A 249.30 249.30 0 0 1 112.76 58.82"/>
<path class="fine" d="M 139.14 41.96 A 249.30 249.30 0 0 1 149.93 36.31"/>
<path class="fine" d="M 178.84 24.28 A 249.30 249.30 0 0 1 190.45 20.60"/>
<path class="fine" d="M 221.00 13.77 A 249.30 249.30 0 0 1 233.08 12.16"/>
</svg>